<svg id="visual" viewBox="0 0 960 100" width="960" height="100" xmlns="http://www.w3.org/2000/svg" xmlns:xlink="http://www.w3.org/1999/xlink" version="1.1"><rect x="0" y="0" width="960" height="100" fill="#0088a9"></rect><path d="M0 54L22.8 57.8C45.7 61.7 91.3 69.3 137 70.3C182.7 71.3 228.3 65.7 274 66.3C319.7 67 365.3 74 411.2 75.7C457 77.3 503 73.7 548.8 72.2C594.7 70.7 640.3 71.3 686 71.5C731.7 71.7 777.3 71.3 823 68.7C868.7 66 914.3 61 937.2 58.5L960 56L960 0L937.2 0C914.3 0 868.7 0 823 0C777.3 0 731.7 0 686 0C640.3 0 594.7 0 548.8 0C503 0 457 0 411.2 0C365.3 0 319.7 0 274 0C228.3 0 182.7 0 137 0C91.3 0 45.7 0 22.8 0L0 0Z" fill="#0088a9"></path><path d="M0 68L22.8 63.2C45.7 58.3 91.3 48.7 137 47.8C182.7 47 228.3 55 274 59.3C319.7 63.7 365.3 64.3 411.2 64.2C457 64 503 63 548.8 61C594.7 59 640.3 56 686 53C731.7 50 777.3 47 823 47.2C868.7 47.3 914.3 50.7 937.2 52.3L960 54L960 0L937.2 0C914.3 0 868.7 0 823 0C777.3 0 731.7 0 686 0C640.3 0 594.7 0 548.8 0C503 0 457 0 411.2 0C365.3 0 319.7 0 274 0C228.3 0 182.7 0 137 0C91.3 0 45.7 0 22.8 0L0 0Z" fill="#2c6c8a"></path><path d="M0 46L22.8 45.2C45.7 44.3 91.3 42.7 137 43.7C182.7 44.7 228.3 48.3 274 48.3C319.7 48.3 365.3 44.7 411.2 42.7C457 40.7 503 40.3 548.8 38.5C594.7 36.7 640.3 33.3 686 31.7C731.7 30 777.3 30 823 31.7C868.7 33.3 914.3 36.7 937.2 38.3L960 40L960 0L937.2 0C914.3 0 868.7 0 823 0C777.3 0 731.7 0 686 0C640.3 0 594.7 0 548.8 0C503 0 457 0 411.2 0C365.3 0 319.7 0 274 0C228.3 0 182.7 0 137 0C91.3 0 45.7 0 22.8 0L0 0Z" fill="#345269"></path><path d="M0 37L22.8 34.3C45.7 31.7 91.3 26.3 137 24.5C182.7 22.7 228.3 24.3 274 26.3C319.7 28.3 365.3 30.7 411.2 31.2C457 31.7 503 30.3 548.8 30.7C594.7 31 640.3 33 686 32C731.7 31 777.3 27 823 25.7C868.7 24.3 914.3 25.7 937.2 26.3L960 27L960 0L937.2 0C914.3 0 868.7 0 823 0C777.3 0 731.7 0 686 0C640.3 0 594.7 0 548.8 0C503 0 457 0 411.2 0C365.3 0 319.7 0 274 0C228.3 0 182.7 0 137 0C91.3 0 45.7 0 22.8 0L0 0Z" fill="#303a48"></path><path d="M0 17L22.8 16.7C45.7 16.3 91.3 15.7 137 16.8C182.7 18 228.3 21 274 20.3C319.7 19.7 365.3 15.3 411.2 12.8C457 10.3 503 9.7 548.8 11.7C594.7 13.7 640.3 18.3 686 20.3C731.7 22.3 777.3 21.7 823 20.2C868.7 18.7 914.3 16.3 937.2 15.2L960 14L960 0L937.2 0C914.3 0 868.7 0 823 0C777.3 0 731.7 0 686 0C640.3 0 594.7 0 548.8 0C503 0 457 0 411.2 0C365.3 0 319.7 0 274 0C228.3 0 182.7 0 137 0C91.3 0 45.7 0 22.8 0L0 0Z" fill="#242528"></path></svg>