<svg id="visual" viewBox="0 0 960 100" width="960" height="100" xmlns="http://www.w3.org/2000/svg" xmlns:xlink="http://www.w3.org/1999/xlink" version="1.1"><rect x="0" y="0" width="960" height="100" fill="#edf0f1"></rect><path d="M0 56L22.8 56.5C45.7 57 91.3 58 137 59C182.7 60 228.3 61 274 60.7C319.7 60.3 365.3 58.7 411.2 61C457 63.3 503 69.7 548.8 72.8C594.7 76 640.3 76 686 73.3C731.7 70.7 777.3 65.3 823 66.2C868.7 67 914.3 74 937.2 77.5L960 81L960 0L937.2 0C914.3 0 868.7 0 823 0C777.3 0 731.7 0 686 0C640.3 0 594.7 0 548.8 0C503 0 457 0 411.2 0C365.3 0 319.7 0 274 0C228.3 0 182.7 0 137 0C91.3 0 45.7 0 22.8 0L0 0Z" fill="#edf0f1"></path><path d="M0 46L22.8 45C45.7 44 91.3 42 137 43.3C182.7 44.7 228.3 49.3 274 50.7C319.7 52 365.3 50 411.2 48.3C457 46.7 503 45.3 548.8 46.3C594.7 47.3 640.3 50.7 686 50.2C731.7 49.7 777.3 45.3 823 45.7C868.7 46 914.3 51 937.2 53.5L960 56L960 0L937.2 0C914.3 0 868.7 0 823 0C777.3 0 731.7 0 686 0C640.3 0 594.7 0 548.8 0C503 0 457 0 411.2 0C365.3 0 319.7 0 274 0C228.3 0 182.7 0 137 0C91.3 0 45.7 0 22.8 0L0 0Z" fill="#bfd5dd"></path><path d="M0 36L22.8 35.8C45.7 35.7 91.3 35.3 137 35.3C182.7 35.3 228.3 35.7 274 35.2C319.7 34.7 365.3 33.3 411.2 35.3C457 37.3 503 42.7 548.8 42.7C594.7 42.7 640.3 37.3 686 37.3C731.7 37.3 777.3 42.7 823 44C868.7 45.3 914.3 42.7 937.2 41.3L960 40L960 0L937.2 0C914.3 0 868.7 0 823 0C777.3 0 731.7 0 686 0C640.3 0 594.7 0 548.8 0C503 0 457 0 411.2 0C365.3 0 319.7 0 274 0C228.3 0 182.7 0 137 0C91.3 0 45.7 0 22.8 0L0 0Z" fill="#90bbcb"></path><path d="M0 36L22.8 36.2C45.7 36.3 91.3 36.7 137 34.7C182.7 32.7 228.3 28.3 274 27.5C319.7 26.7 365.3 29.3 411.2 30.5C457 31.7 503 31.3 548.8 29C594.7 26.7 640.3 22.3 686 20.7C731.7 19 777.3 20 823 23.3C868.7 26.7 914.3 32.3 937.2 35.2L960 38L960 0L937.2 0C914.3 0 868.7 0 823 0C777.3 0 731.7 0 686 0C640.3 0 594.7 0 548.8 0C503 0 457 0 411.2 0C365.3 0 319.7 0 274 0C228.3 0 182.7 0 137 0C91.3 0 45.7 0 22.8 0L0 0Z" fill="#5da1ba"></path><path d="M0 24L22.8 23.7C45.7 23.3 91.3 22.7 137 21C182.7 19.3 228.3 16.7 274 16.7C319.7 16.7 365.3 19.3 411.2 20.2C457 21 503 20 548.8 19.7C594.7 19.3 640.3 19.7 686 17.8C731.7 16 777.3 12 823 12.7C868.7 13.3 914.3 18.7 937.2 21.3L960 24L960 0L937.2 0C914.3 0 868.7 0 823 0C777.3 0 731.7 0 686 0C640.3 0 594.7 0 548.8 0C503 0 457 0 411.2 0C365.3 0 319.7 0 274 0C228.3 0 182.7 0 137 0C91.3 0 45.7 0 22.8 0L0 0Z" fill="#0088a9"></path></svg>