<svg id="visual" viewBox="0 0 960 100" width="960" height="100" xmlns="http://www.w3.org/2000/svg" xmlns:xlink="http://www.w3.org/1999/xlink" version="1.1"><rect x="0" y="0" width="960" height="100" fill="#242528"></rect><path d="M0 58L22.8 61.5C45.7 65 91.3 72 137 72.7C182.7 73.3 228.3 67.7 274 64.3C319.7 61 365.3 60 411.2 60.2C457 60.3 503 61.7 548.8 64.8C594.7 68 640.3 73 686 72C731.7 71 777.3 64 823 60.5C868.7 57 914.3 57 937.2 57L960 57L960 0L937.2 0C914.3 0 868.7 0 823 0C777.3 0 731.7 0 686 0C640.3 0 594.7 0 548.8 0C503 0 457 0 411.2 0C365.3 0 319.7 0 274 0C228.3 0 182.7 0 137 0C91.3 0 45.7 0 22.8 0L0 0Z" fill="#242528"></path><path d="M0 51L22.8 50.3C45.7 49.7 91.3 48.3 137 47.5C182.7 46.7 228.3 46.3 274 49.3C319.7 52.3 365.3 58.7 411.2 60.2C457 61.7 503 58.3 548.8 56.5C594.7 54.7 640.3 54.3 686 55.3C731.7 56.3 777.3 58.7 823 59.8C868.7 61 914.3 61 937.2 61L960 61L960 0L937.2 0C914.3 0 868.7 0 823 0C777.3 0 731.7 0 686 0C640.3 0 594.7 0 548.8 0C503 0 457 0 411.2 0C365.3 0 319.7 0 274 0C228.3 0 182.7 0 137 0C91.3 0 45.7 0 22.8 0L0 0Z" fill="#303a48"></path><path d="M0 47L22.8 45.3C45.7 43.7 91.3 40.3 137 38.2C182.7 36 228.3 35 274 34.3C319.7 33.7 365.3 33.3 411.2 34C457 34.7 503 36.3 548.8 39.3C594.7 42.3 640.3 46.7 686 48.3C731.7 50 777.3 49 823 45.8C868.7 42.7 914.3 37.3 937.2 34.7L960 32L960 0L937.2 0C914.3 0 868.7 0 823 0C777.3 0 731.7 0 686 0C640.3 0 594.7 0 548.8 0C503 0 457 0 411.2 0C365.3 0 319.7 0 274 0C228.3 0 182.7 0 137 0C91.3 0 45.7 0 22.8 0L0 0Z" fill="#345269"></path><path d="M0 32L22.8 32C45.7 32 91.3 32 137 33C182.7 34 228.3 36 274 36.7C319.7 37.3 365.3 36.7 411.2 34.5C457 32.3 503 28.7 548.8 27C594.7 25.3 640.3 25.7 686 25.3C731.7 25 777.3 24 823 24.5C868.7 25 914.3 27 937.2 28L960 29L960 0L937.2 0C914.3 0 868.7 0 823 0C777.3 0 731.7 0 686 0C640.3 0 594.7 0 548.8 0C503 0 457 0 411.2 0C365.3 0 319.7 0 274 0C228.3 0 182.7 0 137 0C91.3 0 45.7 0 22.8 0L0 0Z" fill="#2c6c8a"></path><path d="M0 10L22.8 10.3C45.7 10.7 91.3 11.3 137 13.7C182.7 16 228.3 20 274 20.5C319.7 21 365.3 18 411.2 17.2C457 16.3 503 17.7 548.8 17C594.7 16.3 640.3 13.7 686 13C731.7 12.3 777.3 13.7 823 13.5C868.7 13.3 914.3 11.7 937.2 10.8L960 10L960 0L937.2 0C914.3 0 868.7 0 823 0C777.3 0 731.7 0 686 0C640.3 0 594.7 0 548.8 0C503 0 457 0 411.2 0C365.3 0 319.7 0 274 0C228.3 0 182.7 0 137 0C91.3 0 45.7 0 22.8 0L0 0Z" fill="#0088a9"></path></svg>